Coordinates
version=1
nRows=7
nColumns=63
inDegrees=yes

Units are S.I. units (second, meters, Newtons, ...)
If the header above contains a line with 'inDegrees', this indicates whether rotational values are in degrees (yes) or radians (no).

endheader
time	pelvis_tilt	pelvis_list	pelvis_rotation	pelvis_tx	pelvis_ty	pelvis_tz	hip_flexion_r	hip_adduction_r	hip_rotation_r	knee_angle_r	knee_angle_r_beta	ankle_angle_r	subtalar_angle_r	mtp_angle_r	hip_flexion_l	hip_adduction_l	hip_rotation_l	knee_angle_l	knee_angle_l_beta	ankle_angle_l	subtalar_angle_l	mtp_angle_l	L5_S1_Flex_Ext	L5_S1_Lat_Bending	L5_S1_axial_rotation	L4_L5_Flex_Ext	L4_L5_Lat_Bending	L4_L5_axial_rotation	L3_L4_Flex_Ext	L3_L4_Lat_Bending	L3_L4_axial_rotation	L2_L3_Flex_Ext	L2_L3_Lat_Bending	L2_L3_axial_rotation	L1_L2_Flex_Ext	L1_L2_Lat_Bending	L1_L2_axial_rotation	L1_T12_Flex_Ext	L1_T12_Lat_Bending	L1_T12_axial_rotation	Abs_r3	Abs_r2	Abs_r1	Abs_t1	Abs_t2	neck_flexion	neck_bending	neck_rotation	arm_flex_r	arm_add_r	arm_rot_r	elbow_flex_r	pro_sup_r	wrist_flex_r	wrist_dev_r	arm_flex_l	arm_add_l	arm_rot_l	elbow_flex_l	pro_sup_l	wrist_flex_l	wrist_dev_l
      0.00000000	      6.51413683	     -5.19886959	     86.01653864	      0.26372262	      0.90177539	      0.62756057	      5.26880156	      3.32339119	     -4.69597027	     14.31975927	      0.24992695	     44.66659212	     13.78587947	      0.00000000	      5.01956669	     -4.54565378	      0.08372399	     14.60539141	      0.25491217	     42.95293824	     -0.98883909	      0.00000000	      0.09870787	      0.25633232	     -0.54772756	      0.18331038	      0.34092199	     -0.58196054	      0.16216716	      0.62324641	     -0.58196054	      0.11281322	      0.62324641	     -0.47926162	      0.09166013	      0.52271287	     -0.44502865	      0.05640168	      0.39705877	     -0.41079567	      0.70506044	      2.89968250	     -3.04629639	      0.00000000	      0.00000000	     27.61749871	     -2.52812456	     -5.31456215	      8.52753229	     -5.77732182	     49.79408133	     49.81480165	     20.81447924	     -7.31578245	     -0.72817483	      7.68810980	     -6.12054921	     46.64906114	     50.30000417	     87.83609922	    -14.44845780	      2.54390515
      0.01666667	      6.48641486	     -4.79357547	     85.01473677	      0.26332127	      0.90315244	      0.62854961	      5.08534101	      3.07552705	     -5.11411757	     14.76351718	      0.25767198	     45.02584893	     15.36980430	      0.00000000	      4.50003102	     -4.46295333	     -1.30589755	     14.68468867	      0.25629617	     42.88999330	     -1.38030960	      0.00000000	      0.07537576	      0.26822524	     -0.59912904	      0.13998032	      0.35673956	     -0.63657461	      0.12383483	      0.65216284	     -0.63657461	      0.08614695	      0.65216284	     -0.52423791	      0.06999393	      0.54696490	     -0.48679235	      0.04306971	      0.41548089	     -0.44934678	      0.53840149	      3.03421752	     -3.33217599	      0.00000000	      0.00000000	     27.17721522	     -1.47105249	     -2.93812684	      9.80472900	     -5.82255503	     52.74014050	     48.96223466	     19.14953383	     -7.11124758	     -2.93819956	     10.39724185	     -6.85539506	     52.19547783	     49.03764465	     88.02302267	    -17.86764338	      1.58648517
      0.03333333	      6.35614114	     -4.41034263	     84.05610391	      0.26321671	      0.90430914	      0.62914320	      4.86086281	      2.82072270	     -4.81470782	     15.08110129	      0.26321487	     45.20499134	     16.03101580	      0.00000000	      3.95074756	     -4.23871930	     -2.27610720	     14.59441047	      0.25472052	     42.79766577	     -1.75307478	      0.00000000	      0.04955099	      0.26149620	     -0.63677251	      0.09202115	      0.34778994	     -0.67657079	      0.08140732	      0.63580186	     -0.67657079	      0.05663183	      0.63580186	     -0.55717594	      0.04601305	      0.53324305	     -0.51737766	      0.02831344	      0.40505761	     -0.47757938	      0.35393778	      2.95809729	     -3.54153766	      0.00000000	      0.00000000	     26.65264021	     -0.51275309	     -1.11050297	     10.76568792	     -5.77146494	     54.59940059	     48.37057606	     18.44232191	     -6.93994453	     -2.98134368	     12.16932352	     -7.41402393	     55.46809631	     48.43420576	     88.21590457	    -17.78853361	      2.26592128
      0.05000000	      6.13559157	     -4.08878569	     83.02813118	      0.26359020	      0.90524912	      0.62959964	      4.71782813	      2.52024455	     -4.36418163	     15.41941132	      0.26911950	     45.34713698	     16.55365162	      0.00000000	      3.47647163	     -3.96299542	     -3.36788225	     14.48102960	      0.25274165	     42.75379506	     -1.64914661	      0.00000000	      0.03012398	      0.23406333	     -0.63176018	      0.05594325	      0.31130423	     -0.67124519	      0.04949069	      0.56910157	     -0.67124519	      0.03442870	      0.56910157	     -0.55279016	      0.02797313	      0.47730194	     -0.51330514	      0.01721284	      0.36256409	     -0.47382013	      0.21517261	      2.64777117	     -3.51366058	      0.00000000	      0.00000000	     26.07866240	      0.05573613	     -0.33061022	     11.77275783	     -5.76803547	     57.06201293	     48.03243644	     14.48018574	     -6.33784284	     -3.72675915	     13.48989591	     -7.95252311	     58.25001019	     48.38487861	     88.36609181	    -17.99319372	      4.07151363
      0.06666667	      5.90825703	     -3.82882548	     82.43033029	      0.26357175	      0.90592088	      0.62972188	      4.57714538	      2.21778223	     -4.09616728	     15.67958275	      0.27366034	     45.42146988	     16.75958820	      0.00000000	      3.12370804	     -3.62107088	     -3.57214284	     14.33158525	      0.25013335	     42.66414489	     -1.74691781	      0.00000000	      0.01922818	      0.20603769	     -0.70145332	      0.03570864	      0.27403013	     -0.74529415	      0.03158997	      0.50096004	     -0.74529415	      0.02197588	      0.50096004	     -0.61377165	      0.01785528	      0.42015205	     -0.56993082	      0.01098698	      0.31915238	     -0.52608999	      0.13734493	      2.33073954	     -3.90127293	      0.00000000	      0.00000000	     25.41546672	      0.49777085	      0.26208642	     12.49914558	     -5.78186412	     58.27487155	     47.99670856	     13.75275477	     -6.32033496	     -2.26738151	     14.18091764	     -8.43200292	     59.49285441	     48.40175978	     88.49166941	    -15.86966062	      4.67782471
      0.08333333	      5.63096446	     -3.65214849	     81.54401803	      0.26400346	      0.90638665	      0.62974683	      4.54037738	      1.90037481	     -3.49714864	     15.92614981	      0.27796375	     45.45139893	     16.95247136	      0.00000000	      2.77933789	     -3.20465948	     -3.64723506	     14.06541198	      0.24548775	     42.47064488	     -2.26917056	      0.00000000	      0.00819552	      0.17289212	     -0.74255702	      0.01521991	      0.22994652	     -0.78896684	      0.01346443	      0.42036990	     -0.78896684	      0.00936667	      0.42036990	     -0.64973739	      0.00761036	      0.35256161	     -0.60332758	      0.00468292	      0.26780989	     -0.55691777	      0.05853981	      1.95579023	     -4.12987939	      0.00000000	      0.00000000	     25.22211432	      0.95804056	      0.72407468	     13.02283162	     -5.71704780	     58.89688557	     48.34844439	     10.08872601	     -5.95767263	     -0.30111431	     13.70883595	     -8.81199208	     56.91209148	     49.57651536	     88.63635913	     -9.38662677	      8.80649799
      0.10000000	      5.33609451	     -3.47521053	     80.96741471	      0.26415287	      0.90674104	      0.62957505	      4.47918585	      1.54992356	     -3.16156064	     16.17623329	      0.28232853	     45.40942952	     17.04068045	      0.00000000	      2.46266641	     -2.78260352	     -3.59678096	     13.78496184	      0.24059297	     42.25892211	     -2.51880271	      0.00000000	      0.00452240	      0.14296030	     -0.86331147	      0.00839854	      0.19013720	     -0.91726843	      0.00742984	      0.34759367	     -0.91726843	      0.00516865	      0.34759367	     -0.75539753	      0.00419950	      0.29152464	     -0.70144057	      0.00258410	      0.22144550	     -0.64748360	      0.03230302	      1.61719548	     -4.80147939	      0.00000000	      0.00000000	     24.92033508	      1.19831287	      1.43051383	     13.87664970	     -5.74769655	     60.21943359	     48.66843973	      9.56487601	     -6.24556131	      1.62227572	     13.83396750	     -9.47384838	     56.81758097	     50.39245098	     88.70274515	     -6.18628643	      9.98439933
